<?xml version="1.0" encoding="utf-8"?>
<!-- Generator: Adobe Illustrator 26.2.1, SVG Export Plug-In . SVG Version: 6.00 Build 0)  -->
<svg version="1.1" id="Layer_1" xmlns="http://www.w3.org/2000/svg" xmlns:xlink="http://www.w3.org/1999/xlink" x="0px" y="0px"
	 viewBox="0 0 64 64" style="enable-background:new 0 0 64 64;" xml:space="preserve">
<style type="text/css">
	.st0{fill:#D6F622;}
	.st1{fill:#020A47;}
	.st2{fill:#9394FF;}
	.st3{fill:#5EE4E4;}
	.st4{fill:#D30971;}
	.st5{fill-rule:evenodd;clip-rule:evenodd;fill:#5EE4E4;}
	.st6{fill-rule:evenodd;clip-rule:evenodd;fill:#020A47;}
	.st7{fill:none;stroke:#020A47;stroke-width:2.4;stroke-miterlimit:10;}
	.st8{fill:#FFFF00;}
</style>
<g>
	<path class="st5" d="M56.20263,37.75972l-0.012-0.048l-3.924-17.028l-0.012-0.036c-0.228-0.84-0.66-1.608-1.248-2.244
		c-0.6-0.636-1.332-1.104-2.16-1.392l-0.024-0.012l-0.432-0.132l3.9,16.956l0.012,0.048c0.156,0.852,0.108,1.716-0.132,2.544
		c-0.252,0.828-0.684,1.584-1.284,2.196l-0.048,0.048l-13.764,12.744l-0.06,0.048c-0.96,0.768-2.136,1.2-3.36,1.224
		c-0.504,0.024-1.008-0.036-1.488-0.192l0,0l-16.26-5.052l0.024,0.096l0.012,0.036c0.228,0.84,0.66,1.608,1.248,2.232
		c0.588,0.636,1.332,1.104,2.148,1.38l0.024,0.012l16.692,5.184l0,0c0.48,0.156,0.984,0.216,1.488,0.192
		c1.224-0.036,2.4-0.468,3.36-1.224l0.06-0.048l13.764-12.756l0.048-0.048c0.6-0.624,1.032-1.38,1.284-2.196
		C56.31062,39.47572,56.35862,38.61172,56.20263,37.75972z"/>
	<path class="st6" d="M48.36662,16.79572l-0.012-0.036c-0.228-0.84-0.66-1.608-1.248-2.244c-0.6-0.636-1.332-1.104-2.16-1.392
		l-0.024-0.012l-17.856-5.484h-0.012c-0.48-0.144-0.972-0.216-1.476-0.192c-1.236,0.036-2.424,0.48-3.384,1.26l-0.06,0.048
		l-12.84,11.916l-0.024,0.024c-0.612,0.6-1.068,1.356-1.332,2.184c-0.252,0.828-0.3,1.704-0.132,2.556l0.012,0.024l4.212,18.204
		l0.012,0.036c0.228,0.84,0.66,1.608,1.248,2.232c0.588,0.636,1.332,1.104,2.148,1.38l0.024,0.012l16.692,5.184l0,0
		c0.48,0.156,0.984,0.216,1.488,0.192c1.224-0.036,2.4-0.468,3.36-1.224l0.06-0.048l13.764-12.756l0.048-0.048
		c0.6-0.624,1.032-1.38,1.284-2.196c0.24-0.828,0.288-1.692,0.132-2.544l-0.012-0.048L48.36662,16.79572z M47.97062,35.44372
		l-8.712,2.004c-0.264,0.072-0.552,0.024-0.78-0.12c-0.24-0.144-0.408-0.372-0.468-0.636l-3.696-16.08
		c-0.072-0.264-0.024-0.54,0.108-0.78c0.144-0.24,0.36-0.408,0.624-0.468l8.712-2.004c0.264-0.072,0.552-0.024,0.78,0.12
		c0.24,0.144,0.408,0.372,0.468,0.636l3.708,16.08c0.036,0.132,0.048,0.264,0.036,0.408c-0.012,0.132-0.06,0.264-0.132,0.384
		c-0.072,0.12-0.168,0.216-0.276,0.3C48.22263,35.35972,48.10262,35.40772,47.97062,35.44372z M46.81862,37.59172l-10.56,9.792
		c-0.396,0.396-0.6,0.252-0.456-0.3l2.208-7.092c0.096-0.288,0.264-0.552,0.492-0.768c0.228-0.204,0.504-0.36,0.804-0.432
		l7.26-1.656C47.11862,36.94372,47.21463,37.18372,46.81862,37.59172z M32.80262,49.07572l-15.816-4.896
		c-0.264-0.084-0.492-0.264-0.612-0.504c-0.132-0.24-0.156-0.528-0.084-0.792l2.628-8.472c0.084-0.264,0.264-0.492,0.504-0.624
		c0.24-0.132,0.528-0.168,0.804-0.096l15.816,4.848c0.132,0.036,0.252,0.096,0.36,0.192c0.108,0.084,0.192,0.192,0.264,0.312
		c0.072,0.12,0.108,0.252,0.12,0.396c0.012,0.132,0,0.276-0.036,0.408l-2.652,8.496c-0.096,0.264-0.276,0.48-0.516,0.612
		C33.34262,49.07572,33.06662,49.12372,32.80262,49.07572z M15.07862,40.84372l-3.204-14.04c-0.156-0.552,0.096-0.66,0.456-0.252
		l5.052,5.46c0.204,0.24,0.336,0.528,0.408,0.828c0.072,0.3,0.072,0.624-0.012,0.924l-2.208,7.08
		C15.43862,41.39572,15.17462,41.39572,15.07862,40.84372z M12.11462,22.99972l12.12-11.22c0.096-0.096,0.216-0.168,0.336-0.216
		c0.132-0.048,0.264-0.072,0.396-0.072c0.132,0,0.264,0.036,0.396,0.084c0.12,0.06,0.24,0.132,0.324,0.24l6.048,6.552
		c0.18,0.192,0.276,0.456,0.276,0.732c-0.012,0.264-0.12,0.528-0.324,0.708l-12.12,11.244c-0.204,0.18-0.468,0.288-0.732,0.276
		c-0.276-0.012-0.528-0.12-0.72-0.324l-6.06-6.552c-0.18-0.204-0.276-0.456-0.264-0.732
		C11.81462,23.44372,11.92262,23.19172,12.11462,22.99972z M36.70263,36.46372c0.144,0.576-0.204,0.864-0.756,0.72l-14.916-4.596
		c-0.552-0.156-0.648-0.6-0.252-0.996l11.412-10.608c0.396-0.396,0.852-0.252,0.996,0.3L36.70263,36.46372z M28.08662,11.77972
		l13.812,4.236c0.552,0.144,0.552,0.396,0.012,0.552l-7.248,1.644c-0.3,0.06-0.624,0.048-0.924-0.036
		c-0.3-0.084-0.576-0.24-0.804-0.456l-5.052-5.448C27.43862,11.82772,27.54662,11.63572,28.08662,11.77972z"/>
</g>
</svg>
